<svg width="16" height="16" viewbox="0 0 16 16" fill="none" xmlns="http://www.w3.org/2000/svg">
    <mask id="mask0_614_12342" style="mask-type: alpha;" maskunits="userSpaceOnUse" x="0" y="0" width="16" height="16">
        <rect width="16" height="16" fill="#D9D9D9"></rect>
    </mask>
    <g mask="url(#mask0_614_12342)">
        <path d="M7.99935 13.3333C7.26602 13.3333 6.57446 13.1944 5.92468 12.9167C5.27446 12.6389 4.70779 12.2584 4.22468 11.7753C3.74113 11.2918 3.36046 10.7249 3.08268 10.0747C2.8049 9.42488 2.66602 8.73332 2.66602 7.99999C2.66602 7.56666 2.71335 7.15555 2.80802 6.76666C2.90224 6.37777 3.03268 6.00821 3.19935 5.65799C3.36602 5.30821 3.5689 4.98332 3.80802 4.68332C4.04668 4.38332 4.31046 4.1111 4.59935 3.86666L8.68268 7.93332L8.19935 8.41666L4.59935 4.81666C4.2549 5.20555 3.95757 5.65821 3.70735 6.17466C3.45757 6.69155 3.33268 7.29999 3.33268 7.99999C3.33268 9.28888 3.78824 10.3889 4.69935 11.3C5.61046 12.2111 6.71046 12.6667 7.99935 12.6667C9.28824 12.6667 10.3882 12.2111 11.2993 11.3C12.2105 10.3889 12.666 9.28888 12.666 7.99999C12.666 6.83332 12.2745 5.79999 11.4914 4.89999C10.7078 3.99999 9.6549 3.48332 8.33268 3.34999V4.66666H7.66602V2.66666H7.99935C8.73268 2.66666 9.42446 2.80555 10.0747 3.08332C10.7245 3.3611 11.2911 3.74177 11.7747 4.22532C12.2578 4.70843 12.6382 5.27488 12.916 5.92466C13.1938 6.57488 13.3327 7.26666 13.3327 7.99999C13.3327 8.73332 13.1938 9.42488 12.916 10.0747C12.6382 10.7249 12.2578 11.2918 11.7747 11.7753C11.2911 12.2584 10.7245 12.6389 10.0747 12.9167C9.42446 13.1944 8.73268 13.3333 7.99935 13.3333ZM7.99935 11.85C7.8549 11.85 7.73268 11.8 7.63268 11.7C7.53268 11.6 7.48268 11.4778 7.48268 11.3333C7.48268 11.1889 7.53268 11.0667 7.63268 10.9667C7.73268 10.8667 7.8549 10.8167 7.99935 10.8167C8.14379 10.8167 8.26602 10.8667 8.36602 10.9667C8.46602 11.0667 8.51602 11.1889 8.51602 11.3333C8.51602 11.4778 8.46602 11.6 8.36602 11.7C8.26602 11.8 8.14379 11.85 7.99935 11.85ZM11.3327 8.51666C11.1882 8.51666 11.066 8.46666 10.966 8.36666C10.866 8.26666 10.816 8.14443 10.816 7.99999C10.816 7.85555 10.866 7.73332 10.966 7.63332C11.066 7.53332 11.1882 7.48332 11.3327 7.48332C11.4771 7.48332 11.5993 7.53332 11.6993 7.63332C11.7993 7.73332 11.8493 7.85555 11.8493 7.99999C11.8493 8.14443 11.7993 8.26666 11.6993 8.36666C11.5993 8.46666 11.4771 8.51666 11.3327 8.51666ZM4.66602 8.51666C4.52157 8.51666 4.39935 8.46666 4.29935 8.36666C4.19935 8.26666 4.14935 8.14443 4.14935 7.99999C4.14935 7.85555 4.19935 7.73332 4.29935 7.63332C4.39935 7.53332 4.52157 7.48332 4.66602 7.48332C4.81046 7.48332 4.93268 7.53332 5.03268 7.63332C5.13268 7.73332 5.18268 7.85555 5.18268 7.99999C5.18268 8.14443 5.13268 8.26666 5.03268 8.36666C4.93268 8.46666 4.81046 8.51666 4.66602 8.51666Z" fill="#3C5BFF"></path>
    </g>
</svg>